<svg width="55" height="55" viewBox="0 0 55 55" fill="none" xmlns="http://www.w3.org/2000/svg">
<path d="M38.1518 37.059C38.6066 37.254 39.1047 37.1458 39.4729 36.8209C39.7977 36.5394 41.3353 35.1316 41.92 34.7851C42.6563 34.352 43.2194 26.9672 43.2194 26.9889C43.2627 26.5557 43.1111 26.1225 42.8079 25.8193C39.841 22.8091 39.6894 22.4192 36.1594 21.9861C35.1848 21.8562 34.5352 21.8996 34.4053 22.1162C33.8638 22.9824 36.311 24.5632 38.2384 24.5632C38.9747 24.5632 41.2486 26.9671 41.0321 27.5085C40.8805 27.8767 40.9454 30.2372 40.9238 32.836L39.9492 33.3341C39.4078 33.6157 38.7365 34.1138 38.455 34.4819C37.9569 35.11 37.9136 35.1101 37.069 34.6119C36.2677 34.1355 34.8816 34.1572 34.8816 34.6553C34.8816 35.0884 36.5925 36.4527 37.7187 36.9074L38.1518 37.059Z" fill="#000001"/>
<path d="M48.1636 19.1372C48.1852 18.4659 47.882 17.8162 47.3622 17.4047C46.3877 16.6467 45.3265 16.5601 44.8068 17.1665C43.1609 19.1589 36.534 18.4442 29.8855 15.5422C25.316 13.5498 20.0318 12.6619 15.4839 13.1167C5.60854 14.0912 6.62639 14.3295 7.57928 38.5198L8.64043 39.0612C9.67994 39.6026 9.76652 39.6026 12.7118 38.9529C17.4113 37.9134 25.0777 38 29.539 39.1045C33.5454 40.1007 34.3684 39.9275 32.7225 38.3682C29.6906 35.5095 17.6062 33.8636 12.7118 35.6611C11.7156 36.0293 10.7845 36.3108 10.6329 36.3108C10.1131 36.3108 11.0876 29.7922 10.5895 16.3002C10.6112 16.3002 20.833 13.4199 28.4344 17.2964C32.5492 19.3971 37.5735 20.7614 41.3418 20.7831H45.0017C45.0017 38.3898 45.1533 40.2307 44.5253 40.2307C44.2438 40.2307 42.5329 40.0357 40.7137 39.7975C37.1837 39.3427 36.6856 39.4294 37.4002 40.4472C38.0932 41.4218 42.4463 42.4829 45.175 42.6129C47.6872 42.7428 47.3839 42.3746 47.4922 40.837C47.6005 38.9529 47.4922 40.4472 48.1636 19.1372Z" fill="#000001"/>
<path d="M15.1742 20.3616C15.8455 20.1883 16.9934 19.2138 17.1883 18.6507C17.2749 18.3692 18.0762 18.3908 20.5451 18.6724C26.6522 19.387 23.8368 16.8532 22.6674 16.5284C21.303 16.1386 19.1807 16.2902 16.7552 16.6583C16.3004 16.7233 15.759 17.0698 15.5641 17.438C15.3692 17.8061 14.3729 18.4125 13.6799 19.1272C11.7958 21.0113 11.6009 30.4319 13.42 30.7134C14.9143 30.93 15.4124 31.1249 16.1704 31.8395C17.1016 32.6842 17.2099 32.5975 23.382 32.5975C24.2266 32.5975 24.6814 30.5185 19.3755 30.3019C17.1882 30.2153 16.7118 30.0854 15.9322 29.4357C15.4341 29.0242 14.8927 28.6777 14.7411 28.6777C14.0697 28.6777 14.5028 20.5132 15.1742 20.3616Z" fill="#000001"/>
<path d="M28.0814 32.0346C28.3197 31.7314 28.4929 30.5619 28.4929 30.4536C28.4929 30.3454 29.1426 30.3887 29.8573 30.1938C32.4994 29.4791 32.4344 26.2739 29.749 24.758C29.0127 24.3465 26.3273 24.1949 26.6954 22.549C26.9553 21.3362 27.8649 21.7477 28.8394 22.2242C29.5108 22.5274 30.0955 22.8739 30.6802 23.177C31.7197 23.7185 31.6981 22.3324 31.0051 21.7477C30.5719 21.3796 29.9439 21.0114 29.3159 20.7299C29.186 20.6649 29.4457 20.0369 29.2292 19.5821C28.7744 18.6508 27.4751 18.2394 27.4751 19.0407C27.4751 19.1489 27.2801 20.0152 27.2801 20.0152C27.2584 20.0152 24.9629 18.954 24.0967 21.5095C23.6635 22.7872 24.2049 24.6497 25.8292 25.1478C27.1286 25.5593 29.4891 25.9707 29.3159 27.3134C29.0777 29.1759 25.9158 27.8982 25.8941 27.8982C23.6418 27.3351 22.1043 28.0714 24.768 29.2625C25.2228 29.4791 26.2406 29.739 26.4572 29.9339C26.6738 30.1288 26.4355 31.3632 26.4355 31.5798C26.4788 32.5327 27.5617 32.7492 28.0814 32.0346Z" fill="#000001"/>
</svg>
