<svg width="33" height="42" viewBox="0 0 33 42" fill="none" xmlns="http://www.w3.org/2000/svg">
<path fill-rule="evenodd" clip-rule="evenodd" d="M12.2686 0.179409C11.8186 0.354409 11.5936 0.604379 11.6436 0.879369C11.7186 1.30436 2.5438 13.704 0.193901 21.2287C-0.531099 23.5787 0.643902 23.9037 5.9938 22.8787C9.2437 22.2537 9.1186 21.6038 6.9687 27.6536C5.3688 32.1034 4.1938 35.8283 3.6439 38.1032C2.8939 41.1031 4.4688 42.678 8.3687 38.6032C10.0436 36.8532 13.8435 32.9284 22.7432 22.7787C30.293 14.179 30.2679 14.404 24.3181 14.179L20.6433 14.029C22.3683 12.2041 28.8179 5.25427 30.7929 3.62927C32.7678 1.97934 33.3929 1.30438 30.743 0.929389C27.6681 0.479399 17.2684 0.304409 14.2185 0.0294187C13.5185 -0.0455713 12.6436 0.0294188 12.2686 0.179409ZM27.093 2.70432L25.793 3.77927C22.6181 6.37917 16.3434 13.854 16.3434 15.0039C16.3434 16.2539 18.4434 16.1289 23.8682 16.1289C15.8684 25.4036 9.6186 32.6284 9.4686 32.6284C9.4186 32.6284 9.9937 30.9784 10.7686 28.9285C13.6685 21.1538 13.8185 19.7038 11.7686 19.9538C8.2187 20.3788 4.7438 20.8538 4.2688 21.0037C3.8439 21.1287 4.1188 20.4538 5.7187 17.4539C8.5687 12.0041 9.7186 10.4291 14.7185 2.10434C24.2431 2.52932 24.1431 2.52933 27.093 2.70432Z" fill="#006B99"/>
</svg>
