<svg width="106" height="37" viewBox="0 0 106 37" fill="none" xmlns="http://www.w3.org/2000/svg">
<path d="M43.1528 29.5814L37.5584 9.62834H41.4203L44.9918 24.2911H45.1757L48.9893 9.62834H52.5027L56.3259 24.3009H56.5001L60.0717 9.62834H63.9336L58.3391 29.5814H54.7966L50.8283 15.5811H50.6734L46.6953 29.5814H43.1528ZM69.4999 20.813V29.5814H65.9961V9.62834H69.4225V17.1595H69.5967C69.9451 16.3151 70.4839 15.6494 71.2131 15.1623C71.9487 14.6686 72.8843 14.4217 74.02 14.4217C75.0524 14.4217 75.9526 14.6393 76.7204 15.0746C77.4883 15.5097 78.082 16.1462 78.5014 16.9841C78.9273 17.822 79.1402 18.845 79.1402 20.0531V29.5814H75.6364V20.5987C75.6364 19.5919 75.3783 18.8092 74.8621 18.2506C74.3523 17.6856 73.6361 17.4031 72.7133 17.4031C72.0938 17.4031 71.539 17.5395 71.0486 17.8122C70.5646 18.0785 70.1839 18.465 69.9064 18.9716C69.6354 19.4783 69.4999 20.092 69.4999 20.813ZM82.4392 29.5814V14.6166H85.9429V29.5814H82.4392ZM84.2008 12.4927C83.6458 12.4927 83.1684 12.3076 82.7683 11.9374C82.3682 11.5607 82.1682 11.1093 82.1682 10.5831C82.1682 10.0506 82.3682 9.59917 82.7683 9.22892C83.1684 8.8522 83.6458 8.66385 84.2008 8.66385C84.7621 8.66385 85.2396 8.8522 85.6335 9.22892C86.0335 9.59917 86.2336 10.0506 86.2336 10.5831C86.2336 11.1093 86.0335 11.5607 85.6335 11.9374C85.2396 12.3076 84.7621 12.4927 84.2008 12.4927ZM89.2734 29.5814V14.6166H92.6705V17.1108H92.8252C93.0971 16.2469 93.5612 15.5811 94.2195 15.1135C94.8837 14.6393 95.6419 14.4023 96.4942 14.4023C96.6874 14.4023 96.9037 14.412 97.1422 14.4315C97.3875 14.4445 97.591 14.4673 97.7525 14.4997V17.7441C97.6038 17.6921 97.3687 17.6466 97.0456 17.6076C96.7293 17.5622 96.4232 17.5395 96.1258 17.5395C95.4872 17.5395 94.9127 17.6791 94.4033 17.9583C93.8998 18.2312 93.5031 18.6112 93.2125 19.0983C92.9227 19.5854 92.7774 20.1473 92.7774 20.7838V29.5814H89.2734ZM103.312 9.62834V29.5814H99.8075V9.62834H103.312Z" fill="#2D2D2D"/>
<path fill-rule="evenodd" clip-rule="evenodd" d="M18.5308 5.11434C16.6637 4.33589 14.6437 4.0002 12.6272 4.13325C10.6106 4.26628 8.65148 4.86449 6.90132 5.88159L5.13549 6.90781L3.09649 3.35291L4.86231 2.32669C7.15418 0.994777 9.71969 0.211408 12.3605 0.0371857C15.0012 -0.137037 17.6464 0.302557 20.0914 1.32196C22.5363 2.34136 24.7155 3.91325 26.4604 5.91603C28.2053 7.9188 29.4691 10.2988 30.1541 12.8719C30.839 15.4449 30.9267 18.1421 30.4105 20.7547C29.8941 23.3674 28.7877 25.8255 27.1767 27.9388C25.5657 30.0522 23.4932 31.7641 21.1197 32.9423C18.7462 34.1205 15.6848 34.7333 13.4888 34.7333C11.2929 34.7333 10.0108 34.4018 8.32685 33.6998C6.69032 33.0174 5.20333 32.0173 3.95077 30.7565C2.69822 29.4957 1.70465 27.9989 1.02677 26.3516C0.348897 24.7044 0 22.9388 0 21.1557C0 19.3727 0.348898 17.6072 1.02677 15.9598C1.70465 14.3125 2.69822 12.8158 3.95077 11.5549C5.20333 10.2942 6.69032 9.29404 8.32686 8.61169C9.9634 7.92937 11.7174 7.57818 13.4888 7.57818C15.2602 7.57818 17.0142 7.92937 18.6507 8.61169C20.2873 9.29404 21.7743 10.2942 23.0268 11.5549C24.2794 12.8158 25.273 14.3125 25.9508 15.9598C26.2424 16.6684 26.4731 17.3988 26.6414 18.1431C26.7237 16.7302 26.581 15.309 26.215 13.9343C25.692 11.9694 24.7269 10.1519 23.3945 8.62253C22.0619 7.09314 20.3978 5.89279 18.5308 5.11434ZM5.34449 25.902C5.57579 21.489 9.20388 17.9824 13.6456 17.9824C17.9157 17.9824 21.4338 21.2232 21.9049 25.3945C22.0047 25.1935 22.0976 24.9889 22.1832 24.7808C22.6561 23.6315 22.8996 22.3997 22.8996 21.1557C22.8996 19.9117 22.6561 18.68 22.1832 17.5307C21.7103 16.3814 21.0171 15.3372 20.1432 14.4575C19.2693 13.5779 18.2319 12.8801 17.0901 12.4041C15.9484 11.928 14.7246 11.683 13.4888 11.683C12.2529 11.683 11.0292 11.928 9.88741 12.4041C8.74568 12.8801 7.70823 13.5779 6.83436 14.4575C5.96049 15.3372 5.26729 16.3814 4.79435 17.5307C4.32142 18.68 4.07801 19.9117 4.07801 21.1557C4.07801 22.3997 4.32142 23.6315 4.79435 24.7808C4.95335 25.1671 5.13722 25.5416 5.34449 25.902ZM17.8805 26.35C17.8805 28.7042 15.9845 30.6128 13.6456 30.6128C11.3068 30.6128 9.41075 28.7042 9.41075 26.35C9.41075 23.9958 11.3068 22.0873 13.6456 22.0873C15.9845 22.0873 17.8805 23.9958 17.8805 26.35Z" fill="#006B99"/>
</svg>
